<svg width="16" height="17" viewBox="0 0 16 17" fill="none" xmlns="http://www.w3.org/2000/svg">
<path d="M13.9843 8.93534C13.994 8.9527 14 8.9744 14 8.99846L2.01667 8.99846L2 2.14151C2 2.10995 2.00754 2.09096 2.01667 2.07624C2.02764 2.05855 2.04721 2.03797 2.07687 2.02153C2.13602 1.98872 2.19953 1.988 2.26021 2.02367L13.9269 8.88062C13.9607 8.90052 13.976 8.92034 13.9843 8.93534ZM14.4336 9.97843C15.1888 9.53455 15.1888 8.46237 14.4336 8.0185L2.76691 1.16154C1.9893 0.704511 1 1.2532 1 2.14151L1 15.8554C1 16.7437 1.9893 17.2924 2.76691 16.8354L14.4336 9.97843Z" fill="#3C405B"/>
</svg>
