<svg xmlns="http://www.w3.org/2000/svg" width="219.951" height="68.613" viewBox="0 0 219.951 68.613">
  <g id="LOGO" transform="translate(-578.686 -921.498)">
    <g id="Groupe_178" data-name="Groupe 178" transform="translate(685.681 937.996)">
      <path id="Tracé_54" data-name="Tracé 54" d="M670.926,947.9a20.593,20.593,0,0,0,.86-3.129,1.621,1.621,0,0,1,.939-1.331,37.078,37.078,0,0,1,9.626-3.521,48.99,48.99,0,0,1,9.625-.938c8.216,0,12.989,1.643,12.989,6.259s-6.26,10.252-15.728,11.191c-.549.077-.627.234-.469.626a163.181,163.181,0,0,0,10.017,15.571c4.615,6.261,11.58,12.129,19.8,12.129a20.137,20.137,0,0,0,9.311-2.425c.235-.156.47-.156.47.157a.4.4,0,0,1-.312.392,23.736,23.736,0,0,1-11.112,2.973c-11.816,0-17.372-4.537-24.65-15.727-2.034-3.287-6.259-10.565-8.138-13.695,0-.236.078-.313.235-.313,9.313,0,16.12-3.365,16.12-10.486,0-2.582-1.72-5.791-7.747-5.791a3.71,3.71,0,0,0-2.817,1.017c-3.521,4.07-16.277,26.606-19.014,32.709-.078.157-.158.157-.313.157a10.785,10.785,0,0,0-1.566-.157,11.107,11.107,0,0,0-2.112.157,7.228,7.228,0,0,0-1.8,1.486c-.156,0-.549-.157-.392-.312a343.645,343.645,0,0,0,20.66-33.726c.312-.784.077-.94-.392-.94a22,22,0,0,0-9.079,2.819,12.847,12.847,0,0,0-4.537,5.008C671.238,948.133,670.926,948.054,670.926,947.9Z" transform="translate(-664.707 -933.734)" fill="#e7d7c0"/>
      <path id="Tracé_55" data-name="Tracé 55" d="M702.8,956.5c-.313.157-.627-.157-.627-.47,3.209-3.13,6.809-7.121,6.809-11.738a4.552,4.552,0,0,0-1.252-3.442.564.564,0,0,1-.313-.47c0-.235,1.566-2.348,2.113-2.348.391,0,1.642,1.019,1.642,3.913C711.168,944.685,709.213,949.849,702.8,956.5Z" transform="translate(-655.572 -933.964)" fill="#e7d7c0"/>
      <path id="Tracé_56" data-name="Tracé 56" d="M709.468,975.454c1.252-1.958,3.677-5.243,11.033-16.746a7.452,7.452,0,0,1-1.173-2.114c.077-.312.391-.391.781-.391h1.332a.823.823,0,0,0,.782-.626c1.016-1.878,6.024-10.877,6.024-12.6,0-1.252-.626-1.409-1.955-1.409a33.374,33.374,0,0,0-3.991.235.45.45,0,0,1-.469-.469c0-.235.235-.47.625-.47,2.582,0,7.668-.312,11.033-.626.392,0,.627.313.236,1.016-1.019,1.409-2.348,3.521-3.365,5.244-1.566,2.738-3.678,6.5-5.087,9.313-.313.547-.469.861.157.861,2.347.077,4.46.156,6.1.156,1.878,0,9.86-.392,12.521-.7a1.7,1.7,0,0,0,1.174-.862c3.128-6.026,5.712-10.954,8.529-15.494a3.538,3.538,0,0,1,1.017-.86c2.112-1.175,9.233-4.148,11.033-4.148.235,0,.94.078.94.392,0,.235-.549.312-.782.312a11.651,11.651,0,0,0-5.87,2.269,20.382,20.382,0,0,0-3.521,3.758,106.875,106.875,0,0,0-8.451,14.32c-3.758,7.825-5.322,12.519-5.322,14.711,0,2.034,1.095,3.052,3.131,3.052a11.563,11.563,0,0,0,5.243-1.723c.313,0,.469.313.078.7a25.719,25.719,0,0,1-9.939,2.505c-1.8-.078-2.582-1.253-2.582-2.9a9.664,9.664,0,0,1,.47-2.817c1.016-2.973,2.5-6.337,3.6-8.686a3.307,3.307,0,0,0,.313-1.33c0-1.488-1.957-1.878-3.443-1.878a122.389,122.389,0,0,0-15.338,1.1c-.626.077-1.016.547-1.408,1.173-2.427,4.147-5.635,9.155-7.513,13.772-.234.627-.312.782-1.1.782a7.131,7.131,0,0,0-4.617,1.332Z" transform="translate(-653.793 -934.762)" fill="#e7d7c0"/>
    </g>
    <g id="Groupe_179" data-name="Groupe 179" transform="translate(578.686 921.498)">
      <path id="Tracé_57" data-name="Tracé 57" d="M609.907,965.515a9.847,9.847,0,0,0-1.642,2.034,2.827,2.827,0,0,1-2.192,1.409,90.381,90.381,0,0,1-17.763,2.112c-7.9,0-9.625-1.1-9.625-3.208a6.692,6.692,0,0,1,.859-2.973c.782-1.409,6.729-11.66,6.729-11.895,0-.313-.233-.391-1.328-.391-.313,0-.392-.08-.392-.235,0-.235.392-.627.938-.7a3.3,3.3,0,0,0,2.662-1.878c.782-1.409,6.5-11.66,6.5-12.442,0-.313-.236-.313-.469-.313a38.341,38.341,0,0,0-8.844.782l-.157-.077a3,3,0,0,1,.626-1.8c3.209.157,7.043.313,10.252.313,2.192,0,12.6-.47,17.528-.47.313,0,.469.157.469.392a30.989,30.989,0,0,0-1.486,2.9l-.312-.08c0-.626-.313-1.25-.626-1.33a68.148,68.148,0,0,0-10.877-.7,2.028,2.028,0,0,0-1.88.784,128.641,128.641,0,0,0-8.294,13.3c-.235.47,0,.7.469.7,1.409.08,2.9.08,4.46.08a52.428,52.428,0,0,0,11.738-1.019l.235.235a10.591,10.591,0,0,0-.782,1.643c-.078.235-.313.313-.626.313-2.74-.078-6.026-.157-9.234-.157-2.347,0-4.7,0-6.651.078a.9.9,0,0,0-.862.47,91.869,91.869,0,0,0-5.086,9.938,7.95,7.95,0,0,0-.782,3.208c0,2.348,1.878,3.678,5.556,3.678,5.243,0,16.355-1.8,20.579-5.008C609.752,965.123,609.907,965.28,609.907,965.515Z" transform="translate(-578.686 -918.016)" fill="#013147"/>
      <path id="Tracé_58" data-name="Tracé 58" d="M614.222,966.633a10.512,10.512,0,0,1-3.991.861c-2.738,0-4.3-1.174-4.3-3.6a7.8,7.8,0,0,1,.626-2.974A20.143,20.143,0,0,1,616.568,950.2a4.206,4.206,0,0,1,1.566-.39c1.878,0,2.894.861,2.894,2.269a2.746,2.746,0,0,1-.546,1.8,18.2,18.2,0,0,1-1.566,1.33l-.234-.077a3.677,3.677,0,0,0,.234-1.33,2.246,2.246,0,0,0-2.425-2.192c-3.913,0-7.591,5.633-7.591,11.5a2.962,2.962,0,0,0,3.131,3.286c2.9,0,8.294-3.366,13.85-10.252.549-.547.862-.077.392.392C623.065,960.451,618.214,965.067,614.222,966.633Z" transform="translate(-572.044 -914.595)" fill="#013147"/>
      <path id="Tracé_59" data-name="Tracé 59" d="M629.969,954.285c-1.955,3.365-7.434,12.129-7.434,16.277,0,1.644.782,2.5,2.269,2.5,5.243,0,11.5-6.572,14.555-10.25.7-.705.784-.078.392.313-3.756,4.694-10.408,11.111-16.589,11.111-2.74,0-3.836-1.486-3.836-3.365,0-3.756,7.669-15.416,9.783-18.937,3.52-6.1,7.825-13.381,10.721-17.842a30.548,30.548,0,0,1,6.339-7.434c3.99-3.365,7.667-5.164,8.842-5.164a1.312,1.312,0,0,1,1.407,1.409C656.417,927.211,646.01,945.6,629.969,954.285Zm21.91-30.6c-1.1,0-2.269,1.017-6.574,6.729-1.72,2.27-5.712,8.373-14.709,22.85,12.6-7.043,22.3-21.52,22.3-28.327C652.9,924.08,652.427,923.69,651.88,923.69Z" transform="translate(-568.777 -921.498)" fill="#013147"/>
      <path id="Tracé_60" data-name="Tracé 60" d="M642.795,969.175c-2.113,0-2.817-1.173-2.817-2.738,0-1.409.94-4.069,2.66-6.887-2.739,3.6-7.433,8.373-10.407,8.373-1.174,0-1.643-.47-1.643-1.643,0-4.774,8.215-16.042,16.981-16.042.547-1.017.938-1.408,1.331-1.565l2.189-.627.158.078a20.669,20.669,0,0,0-1.486,2.192,21.383,21.383,0,0,1,2.347.235c.547.234.469.624.157.624a17.366,17.366,0,0,0-2.817-.311c-4.774,8.449-6.965,13.145-6.965,15.572,0,.939.392,1.642,1.8,1.642,3.286,0,9.546-5.241,14.632-11.58.235-.313.47-.078.47.234C654.611,962.681,647.569,969.175,642.795,969.175Zm4.383-18.389c-7.043,0-13.539,11.816-13.539,15.024,0,.47.158.627.47.627,1.174,0,5.713-3.521,8.609-7.826,1.642-2.5,3.285-5.556,4.537-7.745Z" transform="translate(-566.031 -915.025)" fill="#013147"/>
      <path id="Tracé_61" data-name="Tracé 61" d="M659.464,967.167a12.177,12.177,0,0,1-6.182,2.112c-1.331,0-3.443-.391-3.443-2.659,0-2.739,4.773-10.252,6.417-12.6a5.134,5.134,0,0,1,2.661-1.486c.313,0,.39.077.39.234a2.433,2.433,0,0,1-.39.939c-2.819,4.225-5.87,10.407-5.87,12.676a1.669,1.669,0,0,0,1.878,1.8c4.147,0,10.642-6.339,12.989-9.546.55-.549.55-.157.313.391A40.163,40.163,0,0,1,659.464,967.167Zm2.581-22.771c-.7,0-.938-.313-.938-.939a2.954,2.954,0,0,1,2.583-2.9.944.944,0,0,1,1.016,1.017A3.082,3.082,0,0,1,662.045,944.4Z" transform="translate(-561.337 -916.85)" fill="#013147"/>
      <path id="Tracé_62" data-name="Tracé 62" d="M668.926,944.638a20.659,20.659,0,0,0,.86-3.131,1.621,1.621,0,0,1,.939-1.33,36.994,36.994,0,0,1,9.626-3.521,48.9,48.9,0,0,1,9.625-.939c8.215,0,12.989,1.643,12.989,6.259s-6.26,10.252-15.728,11.191c-.549.079-.627.235-.469.626a163.171,163.171,0,0,0,10.017,15.573c4.615,6.26,11.58,12.129,19.8,12.129a20.137,20.137,0,0,0,9.311-2.427c.235-.155.47-.155.47.157a.4.4,0,0,1-.312.392,23.722,23.722,0,0,1-11.112,2.973c-11.816,0-17.372-4.538-24.65-15.727-2.034-3.287-6.259-10.564-8.138-13.695,0-.235.078-.313.235-.313,9.313,0,16.12-3.365,16.12-10.486,0-2.582-1.72-5.791-7.747-5.791a3.711,3.711,0,0,0-2.817,1.019c-3.521,4.069-16.277,26.6-19.014,32.708-.078.157-.158.157-.313.157a10.769,10.769,0,0,0-1.566-.157,11.107,11.107,0,0,0-2.112.157,7.208,7.208,0,0,0-1.8,1.488c-.156,0-.549-.157-.392-.313a343.8,343.8,0,0,0,20.66-33.725c.312-.784.077-.94-.392-.94a22,22,0,0,0-9.079,2.817,12.852,12.852,0,0,0-4.537,5.009C669.238,944.872,668.926,944.795,668.926,944.638Z" transform="translate(-558.199 -918.031)" fill="#013147"/>
      <path id="Tracé_63" data-name="Tracé 63" d="M700.8,953.24c-.313.157-.627-.157-.627-.47,3.209-3.128,6.809-7.12,6.809-11.737a4.555,4.555,0,0,0-1.252-3.443.564.564,0,0,1-.313-.47c0-.234,1.566-2.348,2.113-2.348.391,0,1.642,1.019,1.642,3.913C709.168,941.424,707.213,946.588,700.8,953.24Z" transform="translate(-549.065 -918.261)" fill="#013147"/>
      <path id="Tracé_64" data-name="Tracé 64" d="M707.468,972.193c1.252-1.956,3.677-5.243,11.033-16.746a7.45,7.45,0,0,1-1.173-2.113c.077-.313.39-.392.781-.392h1.332a.824.824,0,0,0,.782-.626c1.016-1.877,6.024-10.877,6.024-12.6,0-1.251-.626-1.408-1.955-1.408a33.378,33.378,0,0,0-3.991.234.45.45,0,0,1-.469-.469c0-.234.235-.47.626-.47,2.582,0,7.668-.312,11.033-.626.392,0,.627.313.236,1.017-1.019,1.408-2.348,3.521-3.365,5.243-1.566,2.739-3.678,6.5-5.087,9.313-.313.547-.469.861.157.861,2.347.078,4.46.156,6.1.156,1.878,0,9.86-.391,12.521-.7a1.7,1.7,0,0,0,1.174-.862c3.128-6.025,5.712-10.954,8.529-15.494a3.537,3.537,0,0,1,1.017-.859c2.112-1.174,9.233-4.148,11.033-4.148.235,0,.94.078.94.392,0,.235-.549.312-.782.312a11.644,11.644,0,0,0-5.87,2.27,20.327,20.327,0,0,0-3.521,3.756,106.864,106.864,0,0,0-8.451,14.32c-3.758,7.825-5.322,12.519-5.322,14.711,0,2.035,1.095,3.052,3.131,3.052a11.548,11.548,0,0,0,5.243-1.723c.313,0,.469.313.078.705a25.722,25.722,0,0,1-9.939,2.5c-1.8-.078-2.582-1.251-2.582-2.9a9.648,9.648,0,0,1,.47-2.816,94.015,94.015,0,0,1,3.6-8.687,3.308,3.308,0,0,0,.313-1.33c0-1.486-1.957-1.878-3.443-1.878a122.63,122.63,0,0,0-15.338,1.1c-.626.077-1.016.547-1.408,1.173-2.427,4.147-5.635,9.156-7.513,13.773-.234.626-.312.781-1.1.781a7.131,7.131,0,0,0-4.617,1.332Z" transform="translate(-547.285 -919.059)" fill="#013147"/>
    </g>
  </g>
</svg>
